# Blender v2.93.1 OBJ File: ''
# www.blender.org
o cube
v 0.437500 0.125000 -0.375000
v 0.437500 0.125000 -0.375000
v 0.437500 0.875000 -0.375000
v 0.437500 0.875000 -0.375000
v 0.437500 0.125000 0.375000
v 0.437500 0.875000 0.375000
v 0.437500 0.125000 0.375000
v 0.437500 0.875000 0.375000
v 0.375000 0.000000 -0.500000
v -0.375000 0.000000 -0.500000
v -0.375000 0.125000 -0.500000
v 0.375000 0.125000 -0.500000
v 0.375000 0.000000 -0.375000
v 0.375000 0.125000 -0.375000
v -0.375000 0.000000 -0.375000
v -0.375000 0.125000 -0.375000
v 0.375000 0.875000 -0.500000
v -0.375000 0.875000 -0.500000
v -0.375000 1.000000 -0.500000
v 0.375000 1.000000 -0.500000
v 0.375000 0.875000 -0.375000
v 0.375000 1.000000 -0.375000
v -0.375000 0.875000 -0.375000
v -0.375000 1.000000 -0.375000
v 0.375000 0.875000 0.375000
v -0.375000 0.875000 0.375000
v -0.375000 1.000000 0.375000
v 0.375000 1.000000 0.375000
v 0.375000 0.875000 0.500000
v 0.375000 1.000000 0.500000
v -0.375000 0.875000 0.500000
v -0.375000 1.000000 0.500000
v 0.375000 -0.000000 0.375000
v -0.375000 -0.000000 0.375000
v -0.375000 0.125000 0.375000
v 0.375000 0.125000 0.375000
v 0.375000 -0.000000 0.500000
v 0.375000 0.125000 0.500000
v -0.375000 -0.000000 0.500000
v -0.375000 0.125000 0.500000
v -0.500000 0.875000 -0.375000
v -0.500000 0.875000 0.375000
v -0.500000 1.000000 0.375000
v -0.500000 1.000000 -0.375000
v -0.375000 0.875000 -0.375000
v -0.375000 1.000000 -0.375000
v -0.375000 0.875000 0.375000
v -0.375000 1.000000 0.375000
v -0.500000 0.000000 -0.375000
v -0.500000 -0.000000 0.375000
v -0.500000 0.125000 0.375000
v -0.500000 0.125000 -0.375000
v -0.375000 0.000000 -0.375000
v -0.375000 0.125000 -0.375000
v -0.375000 -0.000000 0.375000
v -0.375000 0.125000 0.375000
v 0.375000 0.875000 -0.375000
v 0.375000 0.875000 0.375000
v 0.375000 1.000000 0.375000
v 0.375000 1.000000 -0.375000
v 0.500000 0.875000 -0.375000
v 0.500000 1.000000 -0.375000
v 0.500000 0.875000 0.375000
v 0.500000 1.000000 0.375000
v 0.375000 0.000000 -0.375000
v 0.375000 -0.000000 0.375000
v 0.375000 0.125000 0.375000
v 0.375000 0.125000 -0.375000
v 0.500000 0.000000 -0.375000
v 0.500000 0.125000 -0.375000
v 0.500000 -0.000000 0.375000
v 0.500000 0.125000 0.375000
v 0.500000 0.000000 -0.500000
v 0.375000 0.000000 -0.500000
v 0.375000 1.000000 -0.500000
v 0.500000 1.000000 -0.500000
v 0.500000 0.000000 -0.375000
v 0.500000 1.000000 -0.375000
v 0.375000 0.000000 -0.375000
v 0.375000 1.000000 -0.375000
v 0.500000 -0.000000 0.375000
v 0.375000 -0.000000 0.375000
v 0.375000 1.000000 0.375000
v 0.500000 1.000000 0.375000
v 0.500000 -0.000000 0.500000
v 0.500000 1.000000 0.500000
v 0.375000 -0.000000 0.500000
v 0.375000 1.000000 0.500000
v -0.375000 -0.000000 0.375000
v -0.500000 -0.000000 0.375000
v -0.500000 1.000000 0.375000
v -0.375000 1.000000 0.375000
v -0.375000 -0.000000 0.500000
v -0.375000 1.000000 0.500000
v -0.500000 -0.000000 0.500000
v -0.500000 1.000000 0.500000
v -0.375000 0.000000 -0.500000
v -0.500000 0.000000 -0.500000
v -0.500000 1.000000 -0.500000
v -0.375000 1.000000 -0.500000
v -0.375000 0.000000 -0.375000
v -0.375000 1.000000 -0.375000
v -0.500000 0.000000 -0.375000
v -0.500000 1.000000 -0.375000
v -0.437500 0.125000 -0.375000
v -0.437500 0.125000 -0.375000
v -0.437500 0.875000 -0.375000
v -0.437500 0.875000 -0.375000
v -0.437500 0.125000 0.375000
v -0.437500 0.125000 0.375000
v -0.437500 0.875000 0.375000
v -0.437500 0.875000 0.375000
v -0.375000 0.125000 -0.437500
v -0.375000 0.125000 -0.437500
v -0.375000 0.875000 -0.437500
v -0.375000 0.875000 -0.437500
v 0.375000 0.125000 -0.437500
v 0.375000 0.125000 -0.437500
v 0.375000 0.875000 -0.437500
v 0.375000 0.875000 -0.437500
v -0.375000 0.125000 0.437500
v -0.375000 0.125000 0.437500
v -0.375000 0.875000 0.437500
v -0.375000 0.875000 0.437500
v 0.375000 0.125000 0.437500
v 0.375000 0.125000 0.437500
v 0.375000 0.875000 0.437500
v 0.375000 0.875000 0.437500
v 0.375000 0.937500 -0.375000
v 0.375000 0.937500 -0.375000
v -0.375000 0.937500 -0.375000
v -0.375000 0.937500 -0.375000
v 0.375000 0.937500 0.375000
v -0.375000 0.937500 0.375000
v 0.375000 0.937500 0.375000
v -0.375000 0.937500 0.375000
v 0.375000 0.062500 -0.375000
v 0.375000 0.062500 -0.375000
v -0.375000 0.062500 -0.375000
v -0.375000 0.062500 -0.375000
v 0.375000 0.062500 0.375000
v 0.375000 0.062500 0.375000
v -0.375000 0.062500 0.375000
v -0.375000 0.062500 0.375000
v -0.375000 0.125000 -0.437500
v -0.375000 0.125000 -0.437500
v -0.375000 0.875000 -0.437500
v -0.375000 0.875000 -0.437500
v 0.375000 0.125000 -0.437500
v 0.375000 0.875000 -0.437500
v 0.375000 0.125000 -0.437500
v 0.375000 0.875000 -0.437500
vt 0.125000 0.125000
vt 0.875000 0.875000
vt 0.125000 0.875000
vt 0.875000 0.125000
vt 0.125000 0.875000
vt 0.125000 0.125000
vt 0.125000 0.125000
vt 0.875000 0.875000
vt 0.125000 0.875000
vt 0.125000 0.125000
vt 0.875000 0.875000
vt 0.125000 0.875000
vt 0.125000 0.125000
vt 0.875000 0.875000
vt 0.125000 0.875000
vt 0.875000 0.000000
vt 0.125000 0.125000
vt 0.125000 0.000000
vt 0.875000 0.000000
vt 0.125000 0.125000
vt 0.125000 0.000000
vt 0.875000 0.875000
vt 0.125000 1.000000
vt 0.125000 0.875000
vt 0.875000 0.000000
vt 0.125000 0.125000
vt 0.125000 0.000000
vt 0.875000 0.875000
vt 0.125000 1.000000
vt 0.125000 0.875000
vt 0.875000 0.875000
vt 0.125000 1.000000
vt 0.125000 0.875000
vt 0.875000 0.875000
vt 0.125000 1.000000
vt 0.125000 0.875000
vt 0.875000 0.000000
vt 0.125000 0.125000
vt 0.125000 0.000000
vt 0.875000 0.875000
vt 0.125000 1.000000
vt 0.125000 0.875000
vt 0.875000 0.875000
vt 0.125000 1.000000
vt 0.125000 0.875000
vt 0.875000 0.000000
vt 0.125000 0.125000
vt 0.125000 0.000000
vt 0.875000 0.875000
vt 0.125000 1.000000
vt 0.125000 0.875000
vt 0.875000 0.000000
vt 0.125000 0.125000
vt 0.125000 0.000000
vt 0.875000 0.000000
vt 0.125000 0.125000
vt 0.125000 0.000000
vt 0.875000 0.000000
vt 0.125000 0.125000
vt 0.125000 0.000000
vt 0.875000 0.875000
vt 0.125000 1.000000
vt 0.125000 0.875000
vt 0.875000 0.875000
vt 0.125000 1.000000
vt 0.125000 0.875000
vt 0.875000 0.875000
vt 0.125000 1.000000
vt 0.125000 0.875000
vt 0.875000 0.875000
vt 0.125000 1.000000
vt 0.125000 0.875000
vt 0.875000 0.000000
vt 0.125000 0.125000
vt 0.125000 0.000000
vt 0.875000 0.000000
vt 0.125000 0.125000
vt 0.125000 0.000000
vt 0.875000 0.000000
vt 0.125000 0.125000
vt 0.125000 0.000000
vt 0.875000 0.875000
vt 0.125000 1.000000
vt 0.125000 0.875000
vt 0.875000 0.000000
vt 0.125000 0.125000
vt 0.125000 0.000000
vt 0.875000 0.875000
vt 0.125000 1.000000
vt 0.125000 0.875000
vt 0.875000 0.875000
vt 0.125000 1.000000
vt 0.125000 0.875000
vt 0.875000 0.000000
vt 0.125000 0.125000
vt 0.125000 0.000000
vt 0.875000 0.875000
vt 0.125000 1.000000
vt 0.125000 0.875000
vt 0.875000 0.000000
vt 0.125000 0.125000
vt 0.125000 0.000000
vt 0.875000 0.000000
vt 0.125000 0.125000
vt 0.125000 0.000000
vt 0.875000 0.000000
vt 0.125000 0.125000
vt 0.125000 0.000000
vt 0.875000 0.875000
vt 0.125000 1.000000
vt 0.125000 0.875000
vt 0.125000 0.000000
vt 0.000000 1.000000
vt 0.000000 0.000000
vt 1.000000 0.000000
vt 0.875000 1.000000
vt 0.875000 0.000000
vt 1.000000 0.000000
vt 0.875000 1.000000
vt 0.875000 0.000000
vt 0.125000 0.000000
vt 0.000000 1.000000
vt 0.000000 0.000000
vt 1.000000 0.875000
vt 0.875000 1.000000
vt 0.875000 0.875000
vt 0.875000 0.125000
vt 0.875000 0.000000
vt 0.125000 0.000000
vt 0.000000 1.000000
vt 0.000000 0.000000
vt 0.125000 0.000000
vt 0.000000 1.000000
vt 0.000000 0.000000
vt 1.000000 0.000000
vt 0.875000 1.000000
vt 0.875000 0.000000
vt 1.000000 0.000000
vt 0.875000 1.000000
vt 0.875000 0.000000
vt 1.000000 0.000000
vt 0.875000 0.125000
vt 0.875000 0.000000
vt 1.000000 0.875000
vt 0.875000 1.000000
vt 0.875000 0.875000
vt 1.000000 0.000000
vt 0.875000 1.000000
vt 0.875000 0.000000
vt 0.125000 0.000000
vt 0.000000 1.000000
vt 0.000000 0.000000
vt 0.125000 0.000000
vt 0.000000 1.000000
vt 0.000000 0.000000
vt 1.000000 0.000000
vt 0.875000 1.000000
vt 0.875000 0.000000
vt 0.125000 0.000000
vt 0.000000 0.125000
vt 0.000000 0.000000
vt 0.125000 0.875000
vt 0.000000 1.000000
vt 0.000000 0.875000
vt 1.000000 0.000000
vt 0.875000 1.000000
vt 0.875000 0.000000
vt 1.000000 0.000000
vt 0.875000 1.000000
vt 0.875000 0.000000
vt 0.125000 0.000000
vt 0.000000 1.000000
vt 0.000000 0.000000
vt 0.125000 0.000000
vt 0.000000 1.000000
vt 0.000000 0.000000
vt 0.125000 0.875000
vt 0.000000 0.875000
vt 0.125000 0.000000
vt 0.000000 0.125000
vt 0.875000 0.125000
vt 0.125000 0.875000
vt 0.125000 0.125000
vt 0.875000 0.125000
vt 0.125000 0.875000
vt 0.125000 0.125000
vt 0.875000 0.875000
vt 0.125000 0.125000
vt 0.875000 0.125000
vt 0.875000 0.125000
vt 0.125000 0.875000
vt 0.125000 0.875000
vt 0.125000 0.125000
vt 0.000000 0.250000
vt 0.000000 1.000000
vt 0.000000 1.000000
vt 0.875000 0.125000
vt 0.125000 0.875000
vt 0.125000 0.125000
vt 0.875000 0.125000
vt 0.125000 0.875000
vt 0.125000 0.125000
vt 0.875000 0.875000
vt 0.125000 0.125000
vt 0.875000 0.125000
vt 0.875000 0.125000
vt 0.125000 0.875000
vt 0.125000 0.875000
vt 0.125000 0.125000
vt 0.875000 0.125000
vt 0.125000 0.875000
vt 0.125000 0.125000
vt 0.000000 0.250000
vt 0.000000 1.000000
vt 0.000000 1.000000
vt 0.000000 0.250000
vt 0.000000 1.000000
vt 0.000000 1.000000
vt 0.875000 0.875000
vt 0.125000 0.125000
vt 0.875000 0.125000
vt 0.875000 0.125000
vt 0.125000 0.875000
vt 0.125000 0.125000
vt 0.875000 0.875000
vt 0.125000 0.125000
vt 0.875000 0.125000
vt 0.875000 0.125000
vt 0.125000 0.875000
vt 0.125000 0.125000
vt 0.875000 0.125000
vt 0.125000 0.875000
vt 0.125000 0.125000
vt 0.875000 0.125000
vt 0.125000 0.875000
vt 0.125000 0.125000
vt 0.875000 0.125000
vt 0.875000 0.125000
vt 0.875000 0.125000
vt 0.875000 0.125000
vt 0.875000 0.125000
vt 0.875000 1.000000
vt 0.875000 0.125000
vt 0.875000 1.000000
vt 0.875000 1.000000
vt 0.875000 1.000000
vt 0.875000 0.125000
vt 0.875000 1.000000
vt 0.875000 1.000000
vt 0.875000 0.125000
vt 0.875000 1.000000
vt 0.875000 0.125000
vt 0.875000 0.125000
vt 0.875000 0.125000
vt 0.875000 1.000000
vt 0.875000 1.000000
vt 0.875000 1.000000
vt 0.875000 1.000000
vt 0.875000 0.125000
vt 0.875000 0.125000
vt 0.875000 0.125000
vt 0.875000 1.000000
vt 0.875000 0.125000
vt 0.875000 1.000000
vt 0.875000 1.000000
vt 0.875000 0.125000
vt 0.875000 1.000000
vt 0.875000 0.125000
vt 0.875000 0.125000
vt 0.875000 0.125000
vt 0.875000 1.000000
vt 0.125000 1.000000
vt 1.000000 1.000000
vt 1.000000 1.000000
vt 0.125000 1.000000
vt 1.000000 0.125000
vt 0.125000 1.000000
vt 0.125000 1.000000
vt 1.000000 1.000000
vt 1.000000 1.000000
vt 1.000000 0.125000
vt 1.000000 1.000000
vt 1.000000 1.000000
vt 0.125000 1.000000
vt 0.125000 1.000000
vt 1.000000 1.000000
vt 0.125000 0.125000
vt 0.125000 1.000000
vt 1.000000 1.000000
vt 1.000000 1.000000
vt 0.125000 1.000000
vt 0.125000 1.000000
vt 0.125000 1.000000
vt 0.125000 0.125000
vt 0.875000 0.875000
vt 0.875000 0.875000
vt 0.125000 0.875000
vt 0.875000 0.875000
vt 0.875000 0.875000
vt 0.000000 0.250000
vt 0.875000 0.875000
vt 0.875000 0.875000
vt 0.125000 0.875000
vt 0.875000 0.875000
vt 0.875000 0.875000
vt 0.875000 0.875000
vt 0.000000 0.250000
vt 0.000000 0.250000
vt 0.125000 0.875000
vt 0.875000 0.875000
vt 0.875000 0.875000
vt 0.875000 0.875000
vt 0.125000 0.875000
vt 0.000000 1.000000
vt 0.000000 0.875000
vt 0.125000 0.875000
vt 0.000000 1.000000
vt 0.000000 0.875000
vt 0.000000 1.000000
vt 0.000000 0.875000
vt 0.000000 1.000000
vt 0.000000 0.875000
vt 0.000000 1.000000
vt 0.000000 0.875000
vt 0.000000 1.000000
vt 0.000000 0.875000
vt 0.125000 0.875000
vt 0.000000 1.000000
vt 0.000000 0.875000
vt 0.125000 0.875000
vt 0.000000 1.000000
vt 0.000000 0.875000
vt 0.000000 1.000000
vt 0.000000 0.875000
vt 0.000000 1.000000
vt 0.000000 0.875000
vt 0.125000 0.875000
vt 0.000000 1.000000
vt 0.000000 0.875000
vt 0.125000 0.875000
vt 0.000000 1.000000
vt 0.000000 0.875000
vt 0.000000 1.000000
vt 0.000000 0.875000
vt 0.000000 1.000000
vt 0.000000 0.875000
vt 0.125000 0.875000
vt 0.000000 1.000000
vt 0.000000 0.875000
vt 0.125000 0.875000
vt 0.000000 1.000000
vt 0.000000 0.875000
vt 0.000000 0.250000
vt 0.000000 1.000000
vt 0.000000 1.000000
vt 0.000000 0.250000
vt 0.000000 0.250000
vt 0.000000 1.000000
vt 0.000000 1.000000
vt 0.000000 0.250000
vt 0.000000 1.000000
vt 0.000000 1.000000
vt 0.000000 0.250000
vt 0.000000 0.250000
vt 0.000000 1.000000
vt 0.000000 1.000000
vt 0.000000 0.250000
vt 0.000000 1.000000
vt 0.000000 1.000000
vt 0.000000 0.250000
vt 0.000000 0.250000
vt 0.000000 1.000000
vt 0.000000 1.000000
vt 0.125000 1.000000
vt 0.125000 1.000000
vt 0.125000 1.000000
vt 0.125000 1.000000
vt 0.125000 1.000000
vt 0.125000 1.000000
vt 0.125000 1.000000
vt 0.125000 1.000000
vt 0.000000 0.250000
vt 0.000000 0.250000
vt 0.000000 0.250000
vn 0.0000 0.0000 -1.0000
vn 1.0000 -0.0000 0.0000
vn 0.0000 0.0000 1.0000
vn 0.0000 0.0000 0.0000
vn 0.0000 1.0000 0.0000
vn 0.0000 -1.0000 -0.0000
vn -1.0000 0.0000 0.0000
s 1
f 1/1/1 3/2/1 4/3/1
f 1/4/2 6/5/2 5/6/2
f 7/7/3 6/8/3 8/9/3
f 8/10/4 4/11/4 3/12/4
f 2/13/4 5/14/4 7/15/4
f 10/16/1 12/17/1 9/18/1
f 13/19/3 16/20/3 15/21/3
f 14/22/5 11/23/5 16/24/5
f 9/25/6 15/26/6 10/27/6
f 18/28/1 20/29/1 17/30/1
f 21/31/3 24/32/3 23/33/3
f 22/34/5 19/35/5 24/36/5
f 17/37/6 23/38/6 18/39/6
f 26/40/1 28/41/1 25/42/1
f 29/43/3 32/44/3 31/45/3
f 30/46/5 27/47/5 32/48/5
f 25/49/6 31/50/6 26/51/6
f 34/52/1 36/53/1 33/54/1
f 37/55/3 40/56/3 39/57/3
f 38/58/5 35/59/5 40/60/5
f 33/61/6 39/62/6 34/63/6
f 42/64/7 44/65/7 41/66/7
f 45/67/2 48/68/2 47/69/2
f 46/70/5 43/71/5 48/72/5
f 41/73/6 47/74/6 42/75/6
f 50/76/7 52/77/7 49/78/7
f 53/79/2 56/80/2 55/81/2
f 54/82/5 51/83/5 56/84/5
f 49/85/6 55/86/6 50/87/6
f 58/88/7 60/89/7 57/90/7
f 61/91/2 64/92/2 63/93/2
f 62/94/5 59/95/5 64/96/5
f 57/97/6 63/98/6 58/99/6
f 66/100/7 68/101/7 65/102/7
f 69/103/2 72/104/2 71/105/2
f 70/106/5 67/107/5 72/108/5
f 65/109/6 71/110/6 66/111/6
f 74/112/1 76/113/1 73/114/1
f 73/115/2 78/116/2 77/117/2
f 77/118/3 80/119/3 79/120/3
f 79/121/7 75/122/7 74/123/7
f 78/124/5 75/125/5 80/126/5
f 73/115/6 79/127/6 74/128/6
f 82/129/1 84/130/1 81/131/1
f 81/132/2 86/133/2 85/134/2
f 85/135/3 88/136/3 87/137/3
f 87/138/7 83/139/7 82/140/7
f 86/141/5 83/142/5 88/143/5
f 81/144/6 87/145/6 82/146/6
f 90/147/1 92/148/1 89/149/1
f 89/150/2 94/151/2 93/152/2
f 93/153/3 96/154/3 95/155/3
f 95/156/7 91/157/7 90/158/7
f 94/159/5 91/160/5 96/161/5
f 89/162/6 95/163/6 90/164/6
f 98/165/1 100/166/1 97/167/1
f 97/168/2 102/169/2 101/170/2
f 101/171/3 104/172/3 103/173/3
f 103/174/7 99/175/7 98/176/7
f 102/177/5 99/175/5 104/178/5
f 97/179/6 103/180/6 98/176/6
f 105/181/1 107/182/1 108/183/1
f 109/184/3 111/185/3 112/186/3
f 109/187/7 107/188/7 106/189/7
f 112/190/4 108/191/4 107/188/4
f 106/189/4 110/192/4 109/193/4
f 117/194/4 119/195/4 120/196/2
f 121/197/4 123/198/4 124/199/7
f 125/200/4 127/201/4 128/202/2
f 125/203/3 123/204/3 122/205/3
f 128/206/4 124/207/4 123/204/5
f 122/205/4 126/208/4 125/209/6
f 129/210/5 134/211/5 133/212/5
f 135/213/3 134/214/3 136/215/3
f 141/216/3 143/217/3 144/218/3
f 141/219/6 139/220/6 138/221/6
f 145/222/4 147/223/4 148/224/7
f 145/225/1 150/226/1 149/227/1
f 151/228/4 150/229/4 152/230/2
f 152/231/4 148/232/4 147/233/5
f 146/234/4 149/235/4 151/236/6
f 1/1/1 2/237/1 3/2/1
f 1/4/2 4/11/2 6/5/2
f 7/7/3 5/238/3 6/8/3
f 8/10/4 6/239/4 4/11/4
f 2/13/4 1/4/4 5/14/4
f 10/16/1 11/240/1 12/17/1
f 13/19/3 14/241/3 16/20/3
f 14/22/5 12/242/5 11/23/5
f 9/25/6 13/243/6 15/26/6
f 18/28/1 19/244/1 20/29/1
f 21/31/3 22/245/3 24/32/3
f 22/34/5 20/246/5 19/35/5
f 17/37/6 21/247/6 23/38/6
f 26/40/1 27/248/1 28/41/1
f 29/43/3 30/249/3 32/44/3
f 30/46/5 28/250/5 27/47/5
f 25/49/6 29/251/6 31/50/6
f 34/52/1 35/252/1 36/53/1
f 37/55/3 38/253/3 40/56/3
f 38/58/5 36/254/5 35/59/5
f 33/61/6 37/255/6 39/62/6
f 42/64/7 43/256/7 44/65/7
f 45/67/2 46/257/2 48/68/2
f 46/70/5 44/258/5 43/71/5
f 41/73/6 45/259/6 47/74/6
f 50/76/7 51/260/7 52/77/7
f 53/79/2 54/261/2 56/80/2
f 54/82/5 52/262/5 51/83/5
f 49/85/6 53/263/6 55/86/6
f 58/88/7 59/264/7 60/89/7
f 61/91/2 62/265/2 64/92/2
f 62/94/5 60/266/5 59/95/5
f 57/97/6 61/267/6 63/98/6
f 66/100/7 67/268/7 68/101/7
f 69/103/2 70/269/2 72/104/2
f 70/106/5 68/270/5 67/107/5
f 65/109/6 69/271/6 71/110/6
f 74/112/1 75/272/1 76/113/1
f 73/115/2 76/273/2 78/116/2
f 77/118/3 78/274/3 80/119/3
f 79/121/7 80/275/7 75/122/7
f 78/124/5 76/273/5 75/125/5
f 73/115/6 77/276/6 79/127/6
f 82/129/1 83/277/1 84/130/1
f 81/132/2 84/278/2 86/133/2
f 85/135/3 86/279/3 88/136/3
f 87/138/7 88/280/7 83/139/7
f 86/141/5 84/281/5 83/142/5
f 81/144/6 85/282/6 87/145/6
f 90/147/1 91/283/1 92/148/1
f 89/150/2 92/284/2 94/151/2
f 93/153/3 94/285/3 96/154/3
f 95/156/7 96/286/7 91/157/7
f 94/159/5 92/287/5 91/160/5
f 89/162/6 93/288/6 95/163/6
f 98/165/1 99/289/1 100/166/1
f 97/168/2 100/290/2 102/169/2
f 101/171/3 102/291/3 104/172/3
f 103/174/7 104/292/7 99/175/7
f 102/177/5 100/293/5 99/175/5
f 97/179/6 101/294/6 103/180/6
f 105/181/1 106/295/1 107/182/1
f 109/184/3 110/296/3 111/185/3
f 109/187/7 112/297/7 107/188/7
f 112/190/4 111/298/4 108/191/4
f 106/189/4 105/299/4 110/192/4
f 117/194/4 118/300/2 119/195/4
f 121/197/4 122/301/7 123/198/4
f 125/200/4 126/302/2 127/201/4
f 125/203/3 128/303/3 123/204/3
f 128/206/4 127/304/5 124/207/4
f 122/205/4 121/305/6 126/208/4
f 129/210/5 132/306/5 134/211/5
f 135/213/3 133/307/3 134/214/3
f 141/216/3 142/308/3 143/217/3
f 141/219/6 144/309/6 139/220/6
f 145/222/4 146/310/7 147/223/4
f 145/225/1 148/232/1 150/226/1
f 151/228/4 149/311/2 150/229/4
f 152/231/4 150/312/5 148/232/4
f 146/234/4 145/225/6 149/235/4
f 9/313/2 14/314/2 13/315/2
f 15/316/7 11/317/7 10/318/7
f 17/30/2 22/319/2 21/320/2
f 23/33/7 19/321/7 18/322/7
f 25/42/2 30/323/2 29/324/2
f 31/45/7 27/325/7 26/326/7
f 33/327/2 38/328/2 37/329/2
f 39/330/7 35/331/7 34/332/7
f 41/66/1 46/333/1 45/334/1
f 47/69/3 43/335/3 42/336/3
f 49/337/1 54/338/1 53/339/1
f 55/340/3 51/341/3 50/342/3
f 57/90/1 62/343/1 61/344/1
f 63/93/3 59/345/3 58/346/3
f 65/347/1 70/348/1 69/349/1
f 71/350/3 67/351/3 66/352/3
f 113/353/4 115/354/4 116/355/7
f 120/356/4 116/355/4 115/354/5
f 114/357/4 118/358/4 117/359/6
f 129/360/1 131/361/1 132/362/1
f 136/363/4 132/362/4 131/361/4
f 130/364/4 133/365/4 135/366/4
f 137/367/1 139/368/1 140/369/1
f 144/370/4 140/369/4 139/368/4
f 138/371/4 142/372/4 141/373/4
f 9/313/2 12/374/2 14/314/2
f 15/316/7 16/375/7 11/317/7
f 17/30/2 20/29/2 22/319/2
f 23/33/7 24/32/7 19/321/7
f 25/42/2 28/41/2 30/323/2
f 31/45/7 32/44/7 27/325/7
f 33/327/2 36/376/2 38/328/2
f 39/330/7 40/377/7 35/331/7
f 41/66/1 44/65/1 46/333/1
f 47/69/3 48/68/3 43/335/3
f 49/337/1 52/378/1 54/338/1
f 55/340/3 56/379/3 51/341/3
f 57/90/1 60/89/1 62/343/1
f 63/93/3 64/92/3 59/345/3
f 65/347/1 68/380/1 70/348/1
f 71/350/3 72/381/3 67/351/3
f 113/353/4 114/357/7 115/354/4
f 120/356/4 119/382/5 116/355/4
f 114/357/4 113/353/6 118/358/4
f 129/360/1 130/364/1 131/361/1
f 136/363/4 134/383/4 132/362/4
f 130/364/4 129/360/4 133/365/4
f 137/367/1 138/371/1 139/368/1
f 144/370/4 143/384/4 140/369/4
f 138/371/4 137/367/4 142/372/4
